<svg width="32" height="32" viewBox="0 0 100 100" fill="none" xmlns="http://www.w3.org/2000/svg">
  <path
    d="M30 45V30C30 18.9543 38.9543 10 50 10V10C61.0457 10 70 18.9543 70 30V45"
    stroke="#800020"
    stroke-width="6"
    stroke-linecap="round"
  />
  <rect
    x="20"
    y="40"
    width="60"
    height="50"
    rx="15"
    fill="#800020"
  />
  <path
    d="M50 75L46.5 71.85C34.2 60.7 26.1 53.35 26.1 44.35C26.1 36.95 31.9 31.15 39.3 31.15C43.5 31.15 47.5 33.1 50 36.15C52.5 33.1 56.5 31.15 60.7 31.15C68.1 31.15 73.9 36.95 73.9 44.35C73.9 53.35 65.8 60.7 53.5 71.85L50 75Z"
    fill="#F5F5DC"
    transform="scale(0.35) translate(95, 110)"
  />
</svg>
